# xmcd
#
# Track frame offsets:
#	150
#	15044
#	43539
#
# Disc length: 809 seconds
#
# Revision: 0
# Processed by: cddbd v1.5.2PL0 Copyright (c) Steve Scherf et al.
# Submitted via: audiograbber 1.83.01
#
DISCID=11032703
DTITLE=Hannah - Without You [CDM)
DYEAR=2001
DGENRE=Trance
TTITLE0=Without You (Radio Version)
TTITLE1=Without You (Extended Version)
TTITLE2=Without You (Paradise Mix)
EXTD=TR.
EXTT0=
EXTT1=
EXTT2=
PLAYORDER=
